<svg width="56" height="56" viewBox="0 0 56 56" fill="none" xmlns="http://www.w3.org/2000/svg">
<rect x="4" y="4" width="48" height="48" rx="24" fill="#FDEAD7"/>
<path d="M24.4 19H20.6C20.0399 19 19.7599 19 19.546 19.109C19.3578 19.2049 19.2049 19.3578 19.109 19.546C19 19.7599 19 20.0399 19 20.6V24.4C19 24.9601 19 25.2401 19.109 25.454C19.2049 25.6422 19.3578 25.7951 19.546 25.891C19.7599 26 20.0399 26 20.6 26H24.4C24.9601 26 25.2401 26 25.454 25.891C25.6422 25.7951 25.7951 25.6422 25.891 25.454C26 25.2401 26 24.9601 26 24.4V20.6C26 20.0399 26 19.7599 25.891 19.546C25.7951 19.3578 25.6422 19.2049 25.454 19.109C25.2401 19 24.9601 19 24.4 19Z" stroke="#EF6820" stroke-width="2" stroke-linecap="round" stroke-linejoin="round"/>
<path d="M35.4 19H31.6C31.0399 19 30.7599 19 30.546 19.109C30.3578 19.2049 30.2049 19.3578 30.109 19.546C30 19.7599 30 20.0399 30 20.6V24.4C30 24.9601 30 25.2401 30.109 25.454C30.2049 25.6422 30.3578 25.7951 30.546 25.891C30.7599 26 31.0399 26 31.6 26H35.4C35.9601 26 36.2401 26 36.454 25.891C36.6422 25.7951 36.7951 25.6422 36.891 25.454C37 25.2401 37 24.9601 37 24.4V20.6C37 20.0399 37 19.7599 36.891 19.546C36.7951 19.3578 36.6422 19.2049 36.454 19.109C36.2401 19 35.9601 19 35.4 19Z" stroke="#EF6820" stroke-width="2" stroke-linecap="round" stroke-linejoin="round"/>
<path d="M35.4 30H31.6C31.0399 30 30.7599 30 30.546 30.109C30.3578 30.2049 30.2049 30.3578 30.109 30.546C30 30.7599 30 31.0399 30 31.6V35.4C30 35.9601 30 36.2401 30.109 36.454C30.2049 36.6422 30.3578 36.7951 30.546 36.891C30.7599 37 31.0399 37 31.6 37H35.4C35.9601 37 36.2401 37 36.454 36.891C36.6422 36.7951 36.7951 36.6422 36.891 36.454C37 36.2401 37 35.9601 37 35.4V31.6C37 31.0399 37 30.7599 36.891 30.546C36.7951 30.3578 36.6422 30.2049 36.454 30.109C36.2401 30 35.9601 30 35.4 30Z" stroke="#EF6820" stroke-width="2" stroke-linecap="round" stroke-linejoin="round"/>
<path d="M24.4 30H20.6C20.0399 30 19.7599 30 19.546 30.109C19.3578 30.2049 19.2049 30.3578 19.109 30.546C19 30.7599 19 31.0399 19 31.6V35.4C19 35.9601 19 36.2401 19.109 36.454C19.2049 36.6422 19.3578 36.7951 19.546 36.891C19.7599 37 20.0399 37 20.6 37H24.4C24.9601 37 25.2401 37 25.454 36.891C25.6422 36.7951 25.7951 36.6422 25.891 36.454C26 36.2401 26 35.9601 26 35.4V31.6C26 31.0399 26 30.7599 25.891 30.546C25.7951 30.3578 25.6422 30.2049 25.454 30.109C25.2401 30 24.9601 30 24.4 30Z" stroke="#EF6820" stroke-width="2" stroke-linecap="round" stroke-linejoin="round"/>
<rect x="4" y="4" width="48" height="48" rx="24" stroke="#FEF6EE" stroke-width="8"/>
</svg>
