<svg width="56" height="56" viewBox="0 0 56 56" fill="none" xmlns="http://www.w3.org/2000/svg">
<rect x="4" y="4" width="48" height="48" rx="24" fill="#FDEAD7"/>
<path d="M23 28H28V33M19.01 28H19M24.01 33H24M28.01 37H28M37.01 28H37M19 33H20.5M31.5 28H33.5M19 37H24M28 18V24M33.6 37H35.4C35.9601 37 36.2401 37 36.454 36.891C36.6422 36.7951 36.7951 36.6422 36.891 36.454C37 36.2401 37 35.9601 37 35.4V33.6C37 33.0399 37 32.7599 36.891 32.546C36.7951 32.3578 36.6422 32.2049 36.454 32.109C36.2401 32 35.9601 32 35.4 32H33.6C33.0399 32 32.7599 32 32.546 32.109C32.3578 32.2049 32.2049 32.3578 32.109 32.546C32 32.7599 32 33.0399 32 33.6V35.4C32 35.9601 32 36.2401 32.109 36.454C32.2049 36.6422 32.3578 36.7951 32.546 36.891C32.7599 37 33.0399 37 33.6 37ZM33.6 24H35.4C35.9601 24 36.2401 24 36.454 23.891C36.6422 23.7951 36.7951 23.6422 36.891 23.454C37 23.2401 37 22.9601 37 22.4V20.6C37 20.0399 37 19.7599 36.891 19.546C36.7951 19.3578 36.6422 19.2049 36.454 19.109C36.2401 19 35.9601 19 35.4 19H33.6C33.0399 19 32.7599 19 32.546 19.109C32.3578 19.2049 32.2049 19.3578 32.109 19.546C32 19.7599 32 20.0399 32 20.6V22.4C32 22.9601 32 23.2401 32.109 23.454C32.2049 23.6422 32.3578 23.7951 32.546 23.891C32.7599 24 33.0399 24 33.6 24ZM20.6 24H22.4C22.9601 24 23.2401 24 23.454 23.891C23.6422 23.7951 23.7951 23.6422 23.891 23.454C24 23.2401 24 22.9601 24 22.4V20.6C24 20.0399 24 19.7599 23.891 19.546C23.7951 19.3578 23.6422 19.2049 23.454 19.109C23.2401 19 22.9601 19 22.4 19H20.6C20.0399 19 19.7599 19 19.546 19.109C19.3578 19.2049 19.2049 19.3578 19.109 19.546C19 19.7599 19 20.0399 19 20.6V22.4C19 22.9601 19 23.2401 19.109 23.454C19.2049 23.6422 19.3578 23.7951 19.546 23.891C19.7599 24 20.0399 24 20.6 24Z" stroke="#EF6820" stroke-width="2" stroke-linecap="round" stroke-linejoin="round"/>
<rect x="4" y="4" width="48" height="48" rx="24" stroke="#FEF6EE" stroke-width="8"/>
</svg>
