<svg width="56" height="56" viewBox="0 0 56 56" fill="none" xmlns="http://www.w3.org/2000/svg">
<rect x="4" y="4" width="48" height="48" rx="24" fill="#FDEAD7"/>
<path d="M19 25H37M19 31H37M23.8 19H32.2C33.8802 19 34.7202 19 35.362 19.327C35.9265 19.6146 36.3854 20.0735 36.673 20.638C37 21.2798 37 22.1198 37 23.8V32.2C37 33.8802 37 34.7202 36.673 35.362C36.3854 35.9265 35.9265 36.3854 35.362 36.673C34.7202 37 33.8802 37 32.2 37H23.8C22.1198 37 21.2798 37 20.638 36.673C20.0735 36.3854 19.6146 35.9265 19.327 35.362C19 34.7202 19 33.8802 19 32.2V23.8C19 22.1198 19 21.2798 19.327 20.638C19.6146 20.0735 20.0735 19.6146 20.638 19.327C21.2798 19 22.1198 19 23.8 19Z" stroke="#EF6820" stroke-width="2" stroke-linecap="round" stroke-linejoin="round"/>
<rect x="4" y="4" width="48" height="48" rx="24" stroke="#FEF6EE" stroke-width="8"/>
</svg>
